<svg id="Layer_1" data-name="Layer 1" xmlns="http://www.w3.org/2000/svg" viewBox="0 0 281.29 73.48"><defs><style>.cls-1{fill:#fff;}.cls-2{fill:#cfb87c;}</style></defs><title>CUAK_Logo</title><path class="cls-1" d="M34.91,13.57q12.45,0,17.9,5.1t5.44,17v5.19h-19V33.68c0-4.78-1.48-7.16-4.42-7.16-2,0-3.35,1.16-4,3.48s-.93,9-.93,20,.33,17.54,1,19.86,2.06,3.48,4.22,3.48A3.06,3.06,0,0,0,37.8,72a10.12,10.12,0,0,0,1.38-3.78,72.2,72.2,0,0,0,.44-10.15v-2h19v3.33q0,14.33-5.69,20.6T34.81,86.33q-9.41,0-14.51-2.6a16.27,16.27,0,0,1-7.45-7.3A29.21,29.21,0,0,1,10.1,65q-.39-6.7-.39-15,0-8.43.44-15.2A28.9,28.9,0,0,1,13,23.38a16.67,16.67,0,0,1,7.51-7.26Q25.59,13.57,34.91,13.57Z" transform="translate(-9.71 -12.9)"/><path class="cls-1" d="M83.06,15v50.5a16.07,16.07,0,0,0,.83,6c.55,1.27,1.78,1.91,3.68,1.91s3.12-.64,3.67-1.91a16,16,0,0,0,.84-6V15h19.61V61.72q0,12.36-5.64,18.48T87.47,86.33Q74.53,86.33,69,81T63.44,61.92V15Z" transform="translate(-9.71 -12.9)"/><path class="cls-2" d="M140.63,13.57l8.07,34.32h-9.9l-1.06-5.24H131.3l-1,5.24h-9.9l8.13-34.32Zm-8.32,21.58h4.38l-2.07-14.08h-.1Z" transform="translate(-9.71 -12.9)"/><path class="cls-2" d="M161.05,12.9q6.06,0,8.82,2.64c1.84,1.77,2.76,4.63,2.76,8.61v.38h-9V23.47a6,6,0,0,0-.65-3.41,2.18,2.18,0,0,0-1.8-.82,2.1,2.1,0,0,0-1.85.87,5.83,5.83,0,0,0-.6,3.12V37.84q0,4.38,2.5,4.38a2.37,2.37,0,0,0,2-.87,4.93,4.93,0,0,0,.65-2.88V35.54h-2.74V29.19h11.77v18.7h-6.68L166,45.1h-.09a6.22,6.22,0,0,1-2.36,2.52,9.19,9.19,0,0,1-4.71.94A9.33,9.33,0,0,1,153.1,47a9,9,0,0,1-3-4A18.19,18.19,0,0,1,149,37.31c-.12-2.11-.17-4.27-.17-6.48q0-8,1.15-11.3a9.24,9.24,0,0,1,3.77-5A13.65,13.65,0,0,1,161.05,12.9Z" transform="translate(-9.71 -12.9)"/><path class="cls-2" d="M194.07,13.57l8.07,34.32h-9.9l-1.05-5.24h-6.44l-1,5.24h-9.9L182,13.57Zm-8.32,21.58h4.38l-2.07-14.08H188Z" transform="translate(-9.71 -12.9)"/><path class="cls-2" d="M212.81,13.57V47.89H203.2V13.57Z" transform="translate(-9.71 -12.9)"/><path class="cls-2" d="M226.65,13.57l4.9,21h.1v-21h9V47.89H230.4l-5.33-21.15H225V47.89h-8.75V13.57Z" transform="translate(-9.71 -12.9)"/><path class="cls-2" d="M255.49,12.9c3.78,0,6.6.78,8.48,2.33s2.81,4.19,2.81,7.91v.29h-9V21.84a3,3,0,0,0-.57-1.85,2.23,2.23,0,0,0-3.29,0,2.78,2.78,0,0,0-.6,1.9,3.72,3.72,0,0,0,2.3,3.51l6.06,3A11.42,11.42,0,0,1,266.18,32a9.62,9.62,0,0,1,1.42,5.46c0,4-1,6.86-3,8.55s-5.2,2.55-9.58,2.55q-6,0-8.7-2.4c-1.8-1.6-2.69-4.1-2.69-7.5V37.6h9.32v1.69a3.21,3.21,0,0,0,.65,2.13,2.13,2.13,0,0,0,1.75.8c1.57,0,2.36-1,2.36-3.08a3.67,3.67,0,0,0-.6-2.21A5.36,5.36,0,0,0,255,35.44q-6.93-3-9-5.14T244,24c0-3.94,1-6.76,3.05-8.48S251.86,12.9,255.49,12.9Z" transform="translate(-9.71 -12.9)"/><path class="cls-2" d="M291,13.57v8.08h-6.54V47.89h-9.61V21.65h-6.53V13.57Z" transform="translate(-9.71 -12.9)"/><path class="cls-2" d="M129.4,54.23V66.66l5.27-12.43h9.77l-7.92,14.14,8.91,18H135.3l-4.59-10.67-1.31,2.47v8.2h-9V54.23Z" transform="translate(-9.71 -12.9)"/><path class="cls-2" d="M165.6,54.23v7.3H155.25v5h9.67v7h-9.67v5.58H166v7.3H146.24V54.23Z" transform="translate(-9.71 -12.9)"/><path class="cls-2" d="M178.66,54.23l4.59,19.63h.09V54.23h8.46V86.38h-9.63l-5-19.81h-.09V86.38h-8.19V54.23Z" transform="translate(-9.71 -12.9)"/><path class="cls-2" d="M205.35,54.23,210,73.86H210V54.23h8.46V86.38h-9.63l-5-19.81h-.09V86.38h-8.2V54.23Z" transform="translate(-9.71 -12.9)"/><path class="cls-2" d="M241.51,54.23v7.3H231.15v5h9.68v7h-9.68v5.58h10.76v7.3H222.15V54.23Z" transform="translate(-9.71 -12.9)"/><path class="cls-2" d="M257.8,54.23a8.87,8.87,0,0,1,5.65,1.62,9.19,9.19,0,0,1,3,4.51q.94,2.88.94,10a35.93,35.93,0,0,1-.92,9.5,9.87,9.87,0,0,1-3,4.79,8.29,8.29,0,0,1-5.58,1.74H244.66V54.23Zm-4.14,25.66h1.62a2.41,2.41,0,0,0,2.14-1,6.92,6.92,0,0,0,.7-3.71V65.35a6.92,6.92,0,0,0-.68-3.62,2.69,2.69,0,0,0-2.43-1h-1.35Z" transform="translate(-9.71 -12.9)"/><path class="cls-2" d="M275.77,54.23l2.56,11.21h.09l2.79-11.21H291l-8.1,19.5V86.38h-9V73.73l-8.11-19.5Z" transform="translate(-9.71 -12.9)"/></svg>